Coordinates
version=1
nRows=38
nColumns=12
inDegrees=yes

Units are S.I. units (second, meters, Newtons, ...)
Angles are in degrees

endheader
time	SC_y	SC_z	SC_x	AC_y	AC_z	AC_x	GH_y	GH_z	GH_yy	EL_x	PS_y
       0.0              -21.79          22.87          29.43           61.4         -16.76          6.423          166.6          8.106          112.1          65.15          51.08
  0.004035              -21.79          22.87          29.43           61.4         -16.75           6.42          166.6          8.112          112.1          65.15          51.09
   0.00807              -21.79          22.87          29.43           61.4         -16.75          6.416          166.6          8.118          112.0          65.14          51.11
    0.0121              -21.79          22.86          29.43           61.4         -16.75          6.413          166.5          8.125          112.0          65.13          51.12
   0.01614               -21.8          22.86          29.44           61.4         -16.74          6.409          166.5          8.132          112.0          65.13          51.14
   0.02017               -21.8          22.86          29.44           61.4         -16.74          6.405          166.5           8.14          111.9          65.12          51.15
   0.02421               -21.8          22.85          29.44           61.4         -16.74            6.4          166.4          8.148          111.9          65.11          51.17
   0.02824               -21.8          22.85          29.44           61.4         -16.73          6.396          166.4          8.157          111.9           65.1          51.19
   0.03228              -21.81          22.85          29.44           61.4         -16.73          6.391          166.3          8.166          111.8          65.09          51.21
   0.03631              -21.81          22.84          29.44           61.4         -16.72          6.385          166.2          8.176          111.8          65.08          51.23
   0.04035              -21.81          22.84          29.45           61.4         -16.72          6.379          166.2          8.187          111.8          65.07          51.26
   0.04438              -21.82          22.83          29.45           61.4         -16.71          6.373          166.1          8.198          111.7          65.06          51.28
   0.04842              -21.82          22.83          29.45           61.4          -16.7          6.366          166.0          8.211          111.7          65.05          51.31
   0.05245              -21.82          22.82          29.45          61.41          -16.7          6.359          166.0          8.225          111.6          65.03          51.34
   0.05649              -21.83          22.81          29.46          61.41         -16.69          6.351          165.9          8.239          111.6          65.02          51.37
   0.06052              -21.83          22.81          29.46          61.41         -16.68          6.342          165.8          8.255          111.5           65.0          51.41
   0.06456              -21.84           22.8          29.46          61.41         -16.67          6.333          165.7          8.272          111.4          64.99          51.44
   0.06859              -21.84          22.79          29.47          61.41         -16.66          6.323          165.6          8.291          111.4          64.97          51.49
   0.07263              -21.85          22.78          29.47          61.41         -16.65          6.312          165.5          8.312          111.3          64.95          51.53
   0.07666              -21.86          22.77          29.47          61.41         -16.64            6.3          165.3          8.334          111.2          64.92          51.58
    0.0807              -21.86          22.76          29.48          61.41         -16.63          6.286          165.2          8.359          111.1           64.9          51.63
   0.08473              -21.87          22.75          29.48          61.41         -16.61          6.272          165.1          8.386          111.0          64.87          51.69
   0.08877              -21.88          22.73          29.49          61.41          -16.6          6.256          164.9          8.416          110.9          64.84          51.76
    0.0928              -21.89          22.72           29.5          61.41         -16.58          6.238          164.7          8.449          110.8          64.81          51.83
   0.09683               -21.9           22.7           29.5          61.41         -16.56          6.218          164.5          8.486          110.6          64.77          51.91
    0.1009              -21.91          22.68          29.51          61.41         -16.54          6.195          164.2          8.527          110.5          64.73           52.0
    0.1049              -21.93          22.66          29.52          61.42         -16.51           6.17          164.0          8.574          110.3          64.69          52.11
    0.1089              -21.94          22.64          29.53          61.42         -16.49          6.142          163.7          8.625          110.1          64.63          52.22
     0.113              -21.96          22.61          29.54          61.42         -16.46          6.111          163.4          8.684          109.9          64.58          52.35
     0.117              -21.98          22.58          29.55          61.42         -16.42          6.075          163.0          8.751          109.7          64.51           52.5
     0.121               -22.0          22.55          29.57          61.42         -16.38          6.034          162.5          8.827          109.4          64.43          52.66
    0.1251              -22.03          22.51          29.58          61.43         -16.34          5.986          162.0          8.914          109.0          64.35          52.85
    0.1291              -22.06          22.47           29.6          61.43         -16.29          5.932          161.5          9.015          108.7          64.25          53.08
    0.1331               -22.1          22.41          29.62          61.43         -16.22          5.869          160.8          9.132          108.2          64.13          53.33
    0.1372              -22.14          22.35          29.65          61.44         -16.15          5.795          160.0          9.269          107.7          63.99          53.63
    0.1412              -22.18          22.28          29.68          61.44         -16.07          5.707          159.1          9.431          107.1          63.83          53.99
    0.1453              -22.24          22.19          29.71          61.45         -15.97          5.604          158.0          9.623          106.4          63.64          54.41
    0.1493              -22.31          22.09          29.76          61.45         -15.85          5.479          156.7          9.853          105.5          63.41          54.92
